<?xml version="1.0" standalone="no"?><!-- Generator: Gravit.io --><svg xmlns="http://www.w3.org/2000/svg" xmlns:xlink="http://www.w3.org/1999/xlink" style="isolation:isolate" viewBox="0 0 24 24" width="24" height="24"><defs><clipPath id="_clipPath_9DSp0CV0mZpbzPvuOyGYLgAy4CMQ20Hc"><rect width="24" height="24"/></clipPath></defs><g clip-path="url(#_clipPath_9DSp0CV0mZpbzPvuOyGYLgAy4CMQ20Hc)"><path d=" M 22 7 L 15 7 L 15 5 L 22 5 L 22 7 L 22 7 Z  M 23.726 17 C 23.284 18.297 21.697 20 18.625 20 C 15.551 20 13.061 18.271 13.061 14.325 C 13.061 10.415 15.386 8.405 18.527 8.405 C 21.609 8.405 23.491 10.187 23.902 12.831 C 23.98 13.337 24.011 14.019 23.997 14.971 L 15.97 14.971 C 16.1 18.182 19.453 18.283 20.558 17 L 23.726 17 L 23.726 17 Z  M 16.04 13 L 21.005 13 C 20.9 11.453 19.869 10.781 18.528 10.781 C 17.062 10.781 16.251 11.549 16.04 13 Z  M 6.466 19.988 L 0 19.988 L 0 5.021 L 6.953 5.021 C 12.429 5.102 12.533 10.465 9.673 11.927 C 13.134 13.187 13.25 19.988 6.466 19.988 Z  M 3 11 L 6.584 11 C 9.092 11 9.49 8 6.272 8 L 3 8 L 3 11 L 3 11 Z  M 6.391 14 L 3 14 L 3 17.016 L 6.341 17.016 C 9.396 17.016 9.209 14 6.391 14 Z " fill="rgb(134,132,142)"/></g></svg>