<?xml version="1.0" standalone="no"?><!-- Generator: Gravit.io --><svg xmlns="http://www.w3.org/2000/svg" xmlns:xlink="http://www.w3.org/1999/xlink" style="isolation:isolate" viewBox="0 0 512 512" width="512" height="512"><defs><clipPath id="_clipPath_58ucegbXxx6xd4ip7Pq7ciceN2N5CXHM"><rect width="512" height="512"/></clipPath></defs><g clip-path="url(#_clipPath_58ucegbXxx6xd4ip7Pq7ciceN2N5CXHM)"><g><g><path d=" M 280.068 100.811 L 280.068 91.509 C 295.31 82.894 304.918 66.679 304.918 48.918 C 304.919 21.944 282.974 0 256.002 0 C 229.029 0 207.085 21.944 207.085 48.917 C 207.085 66.678 216.693 82.893 231.934 91.508 L 231.934 100.811 C 129.479 112.77 49.699 200.086 49.699 305.7 C 49.699 419.454 142.247 512 256 512 C 369.753 512 462.3 419.454 462.3 305.7 C 462.302 200.086 382.523 112.77 280.068 100.811 Z  M 231.933 57.198 L 231.933 72.803 C 225.746 66.562 222.084 58.037 222.084 48.916 C 222.084 30.215 237.299 15 256.001 15 C 274.703 15 289.918 30.215 289.918 48.917 C 289.918 58.037 286.256 66.563 280.068 72.804 L 280.068 57.198 C 280.068 53.056 276.711 49.698 272.568 49.698 L 239.433 49.698 C 235.292 49.698 231.933 53.056 231.933 57.198 Z  M 246.933 74.548 L 246.933 64.698 L 265.068 64.698 L 265.068 74.548 L 246.933 74.548 L 246.933 74.548 Z  M 265.068 89.548 L 265.068 99.609 C 262.06 99.478 259.039 99.398 256 99.398 C 252.961 99.398 249.941 99.478 246.933 99.608 L 246.933 89.548 L 265.068 89.548 L 265.068 89.548 Z  M 256 497 C 150.518 497 64.7 411.183 64.7 305.7 C 64.7 200.217 150.518 114.399 256 114.399 C 361.482 114.399 447.3 200.216 447.3 305.7 C 447.3 411.184 361.484 497 256 497 Z " fill="rgb(255,92,107)"/></g></g><g><g><path d=" M 256 140.817 C 215.039 140.817 175.766 155.939 145.417 183.397 C 142.345 186.176 142.108 190.918 144.887 193.99 C 147.666 197.061 152.409 197.3 155.48 194.52 C 183.066 169.562 218.765 155.817 256 155.817 C 338.645 155.817 405.882 223.054 405.882 305.7 C 405.882 388.346 338.646 455.582 256 455.582 C 173.354 455.582 106.117 388.345 106.117 305.699 C 106.117 272.597 116.69 241.22 136.694 214.961 C 139.204 211.666 138.568 206.96 135.273 204.45 C 131.978 201.94 127.273 202.576 124.762 205.871 C 102.752 234.764 91.118 269.285 91.118 305.699 C 91.118 396.616 165.084 470.582 256.001 470.582 C 346.918 470.582 420.883 396.616 420.883 305.699 C 420.883 214.782 346.917 140.817 256 140.817 Z " fill="rgb(255,92,107)"/></g></g><g><g><path d=" M 272.57 165.667 C 268.427 165.667 265.07 169.025 265.07 173.167 L 265.07 188.194 L 244.74 167.864 C 242.595 165.719 239.369 165.078 236.567 166.238 C 233.764 167.399 231.937 170.133 231.937 173.167 L 231.937 206.3 C 231.937 210.442 235.295 213.8 239.437 213.8 C 243.578 213.8 246.936 210.442 246.936 206.3 L 246.936 191.273 L 267.266 211.603 C 268.701 213.038 270.619 213.8 272.572 213.8 C 273.538 213.8 274.512 213.613 275.44 213.229 C 278.243 212.068 280.07 209.333 280.07 206.3 L 280.07 173.167 C 280.07 169.025 276.713 165.667 272.57 165.667 Z " fill="rgb(255,92,107)"/></g></g><g><g><path d=" M 388.534 298.2 L 379.222 298.2 C 377.86 275.423 370.325 253.683 357.181 234.926 C 342.934 214.593 323.194 199.177 300.094 190.341 C 296.228 188.862 291.89 190.799 290.41 194.667 C 288.931 198.536 290.867 202.872 294.736 204.352 C 336.444 220.304 364.467 261.032 364.467 305.7 C 364.467 365.509 315.809 414.167 256 414.167 C 196.191 414.167 147.534 365.509 147.534 305.7 C 147.534 260.579 174.706 220.874 216.757 204.548 C 220.618 203.048 222.533 198.703 221.034 194.842 C 219.535 190.98 215.191 189.064 211.328 190.564 C 188.377 199.475 168.776 214.901 154.644 235.176 C 141.61 253.875 134.135 275.528 132.778 298.2 L 123.468 298.2 C 119.326 298.2 115.968 301.558 115.968 305.7 C 115.968 309.842 119.326 313.2 123.468 313.2 L 132.767 313.2 C 136.508 375.318 186.382 425.192 248.5 428.933 L 248.5 438.232 C 248.5 442.374 251.858 445.732 256 445.732 C 260.142 445.732 263.501 442.374 263.501 438.232 L 263.501 428.933 C 325.619 425.192 375.492 375.318 379.233 313.2 L 388.534 313.2 C 392.677 313.2 396.034 309.842 396.034 305.7 C 396.034 301.558 392.677 298.2 388.534 298.2 Z " fill="rgb(255,92,107)"/></g></g><g><g><path d=" M 319.875 241.826 C 317.767 239.717 314.609 239.057 311.829 240.149 L 243.007 267.193 C 237.146 269.165 231.771 272.469 227.271 276.97 C 223.706 280.533 220.951 284.602 218.991 288.946 C 218.939 289.061 218.881 289.173 218.835 289.292 L 218.773 289.449 C 218.353 290.413 217.964 291.388 217.623 292.376 L 190.452 361.531 C 189.361 364.308 190.019 367.467 192.129 369.577 C 193.563 371.011 195.48 371.774 197.434 371.774 C 198.355 371.774 199.286 371.604 200.176 371.254 L 269.071 344.182 C 274.903 342.207 280.251 338.912 284.733 334.43 C 288.338 330.825 291.113 326.702 293.078 322.302 C 293.106 322.236 293.144 322.178 293.171 322.111 L 293.265 321.87 C 293.665 320.946 294.038 320.014 294.365 319.069 L 321.553 249.872 C 322.644 247.095 321.986 243.936 319.875 241.826 Z  M 210.706 350.999 L 220.645 325.704 C 222.411 328.828 224.613 331.771 227.271 334.429 C 229.902 337.06 232.836 339.275 235.986 341.065 L 210.706 350.999 L 210.706 350.999 Z  M 280.266 313.937 L 279.362 316.237 C 278.125 318.988 276.383 321.566 274.126 323.822 C 271.96 325.988 269.472 327.715 266.774 328.967 L 264.022 330.048 C 261.467 330.887 258.77 331.329 256.003 331.329 C 249.157 331.329 242.72 328.663 237.879 323.822 C 230.774 316.717 228.726 306.447 231.723 297.511 L 232.681 295.068 C 233.916 292.351 235.646 289.806 237.877 287.574 C 240.019 285.432 242.473 283.718 245.137 282.471 L 248.057 281.324 C 250.59 280.501 253.262 280.067 256.002 280.067 C 262.848 280.067 269.285 282.733 274.126 287.574 C 281.245 294.692 283.288 304.989 280.266 313.937 Z  M 291.36 285.697 C 289.594 282.572 287.391 279.628 284.732 276.968 C 282.102 274.338 279.169 272.124 276.021 270.335 L 301.299 260.402 L 291.36 285.697 L 291.36 285.697 Z " fill="rgb(255,92,107)"/></g></g></g></svg>