<?xml version="1.0" standalone="no"?><!-- Generator: Gravit.io --><svg xmlns="http://www.w3.org/2000/svg" xmlns:xlink="http://www.w3.org/1999/xlink" style="isolation:isolate" viewBox="0 0 375.041 375.041" width="375.041" height="375.041"><defs><clipPath id="_clipPath_uLula0XuKs0d8nojaFkUQSLqtq9OzNei"><rect width="375.041" height="375.041"/></clipPath></defs><g clip-path="url(#_clipPath_uLula0XuKs0d8nojaFkUQSLqtq9OzNei)"><g><g><path d=" M 305.745 152.489 C 313.091 145.974 321.415 138.591 321.415 128.248 C 321.415 117.905 313.091 110.521 305.745 104.006 C 301.589 100.32 296.878 96.142 295.872 93.041 C 294.767 89.642 296.147 83.268 297.366 77.644 C 299.401 68.245 301.708 57.59 295.843 49.533 C 289.925 41.402 279.015 40.312 269.39 39.351 C 263.712 38.784 257.279 38.142 254.468 36.096 C 251.728 34.103 249.167 28.24 246.908 23.067 C 243.006 14.138 238.586 4.018 228.902 0.875 C 227.114 0.295 225.216 0 223.259 0 C 215.863 0 208.82 4.105 202.009 8.076 C 196.96 11.018 191.239 14.353 187.521 14.353 C 183.8 14.353 178.08 11.018 173.031 8.076 C 166.22 4.105 159.177 0 151.78 0 C 149.821 0 147.923 0.295 146.136 0.875 C 136.454 4.019 132.034 14.139 128.134 23.066 C 125.874 28.239 123.312 34.102 120.574 36.095 C 117.761 38.141 111.328 38.783 105.652 39.35 C 96.025 40.311 85.115 41.401 79.199 49.532 C 73.334 57.59 75.64 68.244 77.678 77.643 C 78.895 83.267 80.276 89.641 79.172 93.04 C 78.164 96.14 73.455 100.318 69.299 104.004 C 61.953 110.52 53.627 117.904 53.627 128.247 C 53.627 138.591 61.953 145.976 69.299 152.49 C 73.455 156.176 78.166 160.353 79.172 163.451 C 80.276 166.852 78.895 173.227 77.678 178.851 C 75.641 188.25 73.334 198.905 79.198 206.962 C 85.11 215.084 96.003 216.18 105.62 217.14 L 66.661 342.688 C 65.79 345.492 66.636 348.545 68.825 350.502 C 71.013 352.459 74.143 352.958 76.833 351.78 L 117.148 334.124 L 140.388 371.501 C 141.767 373.721 144.187 375.041 146.755 375.041 C 147.071 375.041 147.392 375.022 147.712 374.98 C 150.624 374.607 153.05 372.568 153.919 369.764 L 187.521 261.485 L 221.121 369.764 C 221.992 372.568 224.418 374.607 227.33 374.98 C 227.65 375.022 227.969 375.041 228.287 375.041 C 230.855 375.041 233.273 373.72 234.654 371.501 L 257.892 334.124 L 298.208 351.78 C 300.894 352.958 304.026 352.461 306.214 350.502 C 308.403 348.545 309.249 345.491 308.38 342.688 L 269.421 217.143 C 279.04 216.182 289.931 215.086 295.843 206.964 C 301.708 198.906 299.402 188.252 297.366 178.852 C 296.147 173.228 294.766 166.853 295.872 163.453 C 296.878 160.352 301.589 156.175 305.745 152.489 Z  M 144.458 349.641 L 126.458 320.689 C 124.489 317.522 120.493 316.284 117.079 317.779 L 85.852 331.455 L 120.356 220.261 C 120.426 220.309 120.504 220.353 120.573 220.402 C 123.311 222.395 125.874 228.257 128.133 233.43 C 132.033 242.358 136.455 252.478 146.137 255.62 C 147.924 256.201 149.825 256.495 151.782 256.495 C 159.178 256.495 166.221 252.389 173.032 248.421 C 174.159 247.764 175.319 247.089 176.485 246.434 L 144.458 349.641 L 144.458 349.641 Z  M 257.96 317.778 C 254.548 316.284 250.552 317.524 248.583 320.688 L 230.581 349.64 L 198.556 246.431 C 199.72 247.085 200.882 247.761 202.009 248.418 C 208.82 252.389 215.863 256.493 223.259 256.493 C 225.218 256.493 227.116 256.199 228.904 255.619 C 238.586 252.475 243.008 242.355 246.908 233.428 C 249.168 228.255 251.73 222.393 254.468 220.4 C 254.534 220.351 254.613 220.307 254.685 220.26 L 289.189 331.453 L 257.96 317.778 L 257.96 317.778 Z  M 281.604 158.82 C 279.25 166.07 281.006 174.181 282.704 182.025 C 284.007 188.034 285.626 195.512 283.716 198.137 C 281.751 200.836 274.07 201.603 267.9 202.219 C 259.957 203.012 251.742 203.831 245.642 208.272 C 239.613 212.659 236.333 220.165 233.163 227.422 C 230.657 233.155 227.54 240.291 224.27 241.353 C 223.977 241.448 223.647 241.494 223.258 241.494 C 219.914 241.494 214.414 238.288 209.561 235.46 C 202.545 231.371 195.291 227.143 187.52 227.143 C 179.747 227.143 172.493 231.372 165.477 235.46 C 160.625 238.288 155.125 241.494 151.782 241.494 C 151.393 241.494 151.063 241.448 150.77 241.352 C 147.5 240.291 144.383 233.156 141.877 227.422 C 138.707 220.164 135.428 212.658 129.398 208.272 C 123.296 203.831 115.082 203.011 107.136 202.218 C 100.966 201.602 93.288 200.835 91.323 198.137 C 89.413 195.512 91.032 188.035 92.333 182.027 C 94.032 174.183 95.79 166.072 93.435 158.819 C 91.169 151.839 85.109 146.465 79.249 141.269 C 74.268 136.851 68.624 131.845 68.624 128.248 C 68.624 124.651 74.268 119.644 79.249 115.227 C 85.108 110.03 91.169 104.655 93.437 97.673 C 95.79 90.422 94.033 82.312 92.335 74.468 C 91.032 68.459 89.413 60.983 91.323 58.358 C 93.288 55.659 100.968 54.892 107.139 54.276 C 115.082 53.483 123.295 52.664 129.397 48.224 C 135.426 43.835 138.706 36.329 141.876 29.071 C 144.382 23.338 147.499 16.203 150.767 15.141 C 151.06 15.047 151.392 15 151.78 15 C 155.124 15 160.624 18.207 165.477 21.035 C 172.493 25.125 179.747 29.353 187.52 29.353 C 195.291 29.353 202.545 25.124 209.561 21.035 C 214.415 18.207 219.915 15 223.259 15 C 223.648 15 223.978 15.047 224.269 15.142 C 227.539 16.203 230.656 23.338 233.162 29.073 C 236.334 36.332 239.613 43.838 245.642 48.225 C 251.742 52.664 259.956 53.484 267.9 54.277 C 274.07 54.893 281.752 55.66 283.716 58.359 C 285.626 60.984 284.007 68.462 282.704 74.469 C 281.007 82.313 279.251 90.424 281.604 97.673 C 283.87 104.655 289.93 110.03 295.792 115.229 C 300.771 119.645 306.415 124.652 306.415 128.249 C 306.415 131.846 300.77 136.852 295.792 141.268 C 289.931 146.464 283.87 151.839 281.604 158.82 Z " fill="rgb(0,0,0)"/><path d=" M 187.52 43.244 C 140.649 43.244 102.516 81.377 102.516 128.248 C 102.516 175.119 140.649 213.252 187.52 213.252 C 234.391 213.252 272.524 175.119 272.524 128.248 C 272.524 81.377 234.392 43.244 187.52 43.244 Z  M 187.52 198.252 C 148.918 198.252 117.516 166.849 117.516 128.248 C 117.516 89.647 148.918 58.244 187.52 58.244 C 226.12 58.244 257.524 89.647 257.524 128.248 C 257.524 166.849 226.12 198.252 187.52 198.252 Z " fill="rgb(74,134,232)"/><path d=" M 187.52 69.186 C 154.954 69.186 128.457 95.681 128.457 128.249 C 128.457 132.392 131.814 135.749 135.957 135.749 C 140.1 135.749 143.457 132.392 143.457 128.249 C 143.457 103.953 163.223 84.186 187.52 84.186 C 191.663 84.186 195.02 80.829 195.02 76.686 C 195.02 72.543 191.663 69.186 187.52 69.186 Z " fill="rgb(74,134,232)"/></g></g></g></svg>