<?xml version="1.0" standalone="no"?><!-- Generator: Gravit.io --><svg xmlns="http://www.w3.org/2000/svg" xmlns:xlink="http://www.w3.org/1999/xlink" style="isolation:isolate" viewBox="0 0 24 24" width="24" height="24"><defs><clipPath id="_clipPath_4vphARczPih5853tfnXagb39lPbrBbW0"><rect width="24" height="24"/></clipPath></defs><g clip-path="url(#_clipPath_4vphARczPih5853tfnXagb39lPbrBbW0)"><path d=" M 12 0 C 5.372 0 0 5.373 0 12 C 0 18.627 5.372 24 12 24 C 18.628 24 24 18.627 24 12 C 24 5.373 18.628 0 12 0 Z  M 21.885 11.441 C 19.31 11.019 16.942 10.996 14.782 11.368 C 14.538 10.805 14.285 10.243 14.015 9.688 C 16.325 8.688 18.18 7.33 19.563 5.606 C 20.913 7.2 21.76 9.225 21.885 11.441 Z  M 18.043 4.159 C 16.838 5.713 15.175 6.942 13.057 7.839 C 12.041 5.978 10.879 4.163 9.569 2.401 C 10.348 2.204 11.16 2.087 12 2.087 C 14.275 2.087 16.368 2.866 18.043 4.159 Z  M 7.527 3.166 C 8.858 4.908 10.038 6.704 11.064 8.547 C 8.634 9.262 5.733 9.629 2.38 9.652 C 3.072 6.817 4.981 4.459 7.527 3.166 Z  M 2.087 12 L 2.1 11.744 C 5.949 11.739 9.269 11.296 12.05 10.422 C 12.283 10.897 12.506 11.374 12.72 11.854 C 9.34 12.911 6.555 15.076 4.383 18.334 C 2.951 16.615 2.087 14.407 2.087 12 Z  M 5.916 19.81 C 7.885 16.722 10.398 14.712 13.514 13.783 C 14.442 16.203 15.123 18.693 15.557 21.243 C 12.208 22.534 8.604 21.909 5.916 19.81 Z  M 17.502 20.24 C 17.064 17.887 16.422 15.587 15.582 13.343 C 17.458 13.078 19.522 13.147 21.781 13.539 C 21.344 16.325 19.753 18.731 17.502 20.24 Z " fill="rgb(134,132,142)"/></g></svg>