<?xml version="1.0" standalone="no"?><!-- Generator: Gravit.io --><svg xmlns="http://www.w3.org/2000/svg" xmlns:xlink="http://www.w3.org/1999/xlink" style="isolation:isolate" viewBox="0 0 511.974 511.974" width="511.974" height="511.974"><defs><clipPath id="_clipPath_c1Kq1OuVqVSnpUniuM6z63egWgAIxmW5"><rect width="511.974" height="511.974"/></clipPath></defs><g clip-path="url(#_clipPath_c1Kq1OuVqVSnpUniuM6z63egWgAIxmW5)"><g><g><g><path d=" M 511.872 195.725 C 511.819 195.137 511.702 194.556 511.522 193.993 C 511.405 193.49 511.242 192.999 511.036 192.525 C 510.797 192.062 510.511 191.624 510.183 191.219 C 509.854 190.738 509.473 190.295 509.048 189.896 C 508.911 189.777 508.852 189.614 508.707 189.495 L 426.642 125.76 L 426.642 59.704 C 426.642 45.566 415.18 34.104 401.042 34.104 L 308.566 34.104 L 271.539 5.355 C 262.392 -1.779 249.565 -1.779 240.418 5.355 L 203.383 34.104 L 110.907 34.104 C 96.769 34.104 85.307 45.565 85.307 59.704 L 85.307 125.761 L 3.268 189.496 C 3.123 189.616 3.063 189.778 2.927 189.897 C 2.502 190.295 2.121 190.739 1.792 191.22 C 1.464 191.625 1.178 192.062 0.939 192.526 C 0.732 192.999 0.57 193.491 0.453 193.994 C 0.275 194.549 0.158 195.121 0.103 195.701 C 0.103 195.88 0.001 196.034 0.001 196.213 L 0.001 486.37 C 0.013 491.798 1.769 497.078 5.01 501.431 C 5.061 501.508 5.07 501.602 5.129 501.67 C 5.189 501.738 5.317 501.815 5.402 501.909 C 10.196 508.217 17.652 511.936 25.575 511.97 L 486.375 511.97 C 494.329 511.946 501.816 508.209 506.616 501.867 C 506.684 501.782 506.787 501.756 506.846 501.671 C 506.906 501.586 506.914 501.509 506.966 501.432 C 510.207 497.078 511.963 491.798 511.975 486.371 L 511.975 196.237 C 511.974 196.058 511.881 195.904 511.872 195.725 Z  M 250.854 18.82 C 253.834 16.452 258.054 16.452 261.034 18.82 L 280.72 34.103 L 231.227 34.103 L 250.854 18.82 L 250.854 18.82 Z  M 27.725 494.904 L 250.855 321.583 C 253.837 319.219 258.054 319.219 261.035 321.583 L 484.224 494.904 L 27.725 494.904 L 27.725 494.904 Z  M 494.908 481.6 L 271.539 308.117 C 262.39 300.989 249.567 300.989 240.418 308.117 L 17.041 481.6 L 17.041 209.233 L 156.877 317.82 C 160.603 320.709 165.965 320.031 168.854 316.305 C 171.743 312.579 171.065 307.217 167.339 304.328 L 25.276 194.018 L 85.308 147.366 L 85.308 213.303 C 85.308 218.016 89.129 221.836 93.841 221.836 C 98.554 221.836 102.374 218.015 102.374 213.303 L 102.374 59.703 C 102.374 54.99 106.194 51.17 110.907 51.17 L 401.04 51.17 C 405.753 51.17 409.573 54.99 409.573 59.703 L 409.573 213.303 C 409.573 218.016 413.393 221.836 418.106 221.836 C 422.819 221.836 426.639 218.015 426.639 213.303 L 426.639 147.366 L 486.671 194.018 L 344.361 304.525 C 341.913 306.38 340.65 309.408 341.056 312.453 C 341.462 315.498 343.473 318.09 346.322 319.239 C 349.171 320.388 352.418 319.918 354.823 318.007 L 494.906 209.233 L 494.906 481.6 L 494.908 481.6 Z " fill="rgb(32,201,165)"/><path d=" M 358.374 204.77 L 358.374 170.637 C 358.374 114.083 312.528 68.237 255.974 68.237 C 199.42 68.237 153.574 114.083 153.574 170.637 C 153.574 227.191 199.42 273.037 255.974 273.037 C 260.687 273.037 264.507 269.217 264.507 264.504 C 264.507 259.791 260.687 255.971 255.974 255.971 C 208.846 255.971 170.641 217.766 170.641 170.638 C 170.641 123.51 208.846 85.305 255.974 85.305 C 303.102 85.305 341.307 123.51 341.307 170.638 L 341.307 204.771 C 341.307 214.197 333.666 221.838 324.24 221.838 C 314.814 221.838 307.173 214.197 307.173 204.771 L 307.173 170.638 C 307.173 165.925 303.353 162.105 298.64 162.105 C 293.927 162.105 290.107 165.925 290.107 170.638 C 290.107 189.489 274.825 204.771 255.974 204.771 C 237.123 204.771 221.841 189.489 221.841 170.638 C 221.841 151.787 237.123 136.505 255.974 136.505 C 260.687 136.505 264.507 132.685 264.507 127.972 C 264.507 123.259 260.687 119.439 255.974 119.439 C 233.059 119.388 212.9 134.569 206.62 156.607 C 200.34 178.645 209.467 202.172 228.967 214.208 C 248.467 226.244 273.589 223.858 290.474 208.365 C 292.332 226.411 308.017 239.829 326.133 238.87 C 344.25 237.91 358.431 222.912 358.374 204.77 Z " fill="rgb(32,201,165)"/></g></g></g></g></svg>