<?xml version="1.0" standalone="no"?><!-- Generator: Gravit.io --><svg xmlns="http://www.w3.org/2000/svg" xmlns:xlink="http://www.w3.org/1999/xlink" style="isolation:isolate" viewBox="0 0 33.872 33.872" width="33.872" height="33.872"><defs><clipPath id="_clipPath_L4qKYe20hVoLYoH57yo2fO7GvOCn6cfw"><rect width="33.872" height="33.872"/></clipPath></defs><g clip-path="url(#_clipPath_L4qKYe20hVoLYoH57yo2fO7GvOCn6cfw)"><g><g><path d=" M 24.156 33.872 C 22.919 33.872 21.425 33.562 19.783 32.942 C 16.18 31.584 12.261 28.9 8.747 25.386 C 5.232 21.872 2.549 17.952 1.19 14.35 C -0.046 11.075 -0.049 8.386 1.18 7.157 C 1.357 6.979 1.538 6.789 1.724 6.594 C 2.848 5.414 4.139 4.074 5.798 4.145 C 6.958 4.193 8.081 4.913 9.232 6.343 C 12.628 10.569 11.098 12.075 9.326 13.821 L 9.013 14.131 C 8.723 14.421 8.174 15.764 13.273 20.862 C 14.937 22.526 16.356 23.744 17.49 24.481 C 18.205 24.946 19.48 25.647 20.004 25.123 L 20.319 24.805 C 22.064 23.035 23.57 21.509 27.793 24.904 C 29.224 26.053 29.942 27.176 29.991 28.337 C 30.06 30.018 28.721 31.289 27.54 32.412 C 27.346 32.597 27.155 32.777 26.978 32.954 C 26.364 33.565 25.388 33.872 24.156 33.872 Z  M 5.68 5.142 C 4.485 5.142 3.405 6.278 2.45 7.283 C 2.258 7.483 2.071 7.68 1.888 7.863 C 0.972 8.778 1.066 11.186 2.126 13.997 C 3.436 17.469 6.038 21.263 9.454 24.68 C 12.87 28.095 16.663 30.698 20.136 32.007 C 22.949 33.069 25.355 33.159 26.271 32.244 C 26.454 32.061 26.65 31.875 26.851 31.683 C 27.878 30.707 29.042 29.602 28.991 28.375 C 28.957 27.531 28.343 26.625 27.166 25.68 C 23.646 22.851 22.663 23.849 21.031 25.504 L 20.711 25.827 C 19.932 26.608 18.664 26.434 16.945 25.317 C 15.753 24.542 14.279 23.279 12.566 21.566 C 8.335 17.335 6.981 14.747 8.306 13.42 L 8.624 13.105 C 10.282 11.473 11.283 10.488 8.453 6.967 C 7.507 5.792 6.601 5.178 5.757 5.143 C 5.731 5.142 5.705 5.142 5.68 5.142 Z " fill="rgb(252,176,59)"/></g><path d=" M 27.478 25.791 C 27.324 25.791 27.172 25.72 27.074 25.586 C 26.912 25.362 26.961 25.05 27.183 24.887 C 28.219 24.131 29.14 23.229 29.92 22.204 C 31.68 19.891 32.61 17.127 32.61 14.212 C 32.611 6.927 26.685 1 19.4 1 C 17.193 1 15.008 1.556 13.083 2.605 C 12.841 2.739 12.537 2.65 12.405 2.406 C 12.272 2.164 12.362 1.86 12.604 1.728 C 14.676 0.598 17.026 0 19.4 0 C 27.236 0 33.611 6.375 33.611 14.212 C 33.611 17.348 32.61 20.32 30.715 22.81 C 29.877 23.912 28.887 24.882 27.773 25.696 C 27.685 25.76 27.581 25.791 27.478 25.791 Z " fill="rgb(252,176,59)"/><g><path d=" M 16.618 8.806 C 17.214 8.626 17.786 8.514 18.403 8.514 C 19.999 8.514 20.975 9.311 20.975 10.67 C 20.975 11.422 20.559 11.995 19.672 12.579 L 17.887 13.78 C 17.336 14.151 17.089 14.735 17.089 15.364 L 20.738 15.364 C 20.817 15.364 20.862 15.409 20.862 15.487 L 20.862 16.352 C 20.862 16.43 20.817 16.475 20.738 16.475 L 15.943 16.475 C 15.865 16.475 15.82 16.43 15.82 16.352 L 15.82 15.813 C 15.82 14.443 16.269 13.455 17.279 12.792 L 19.054 11.613 C 19.503 11.309 19.704 11.017 19.704 10.67 C 19.704 10.041 19.21 9.637 18.401 9.637 C 17.896 9.637 17.413 9.727 16.987 9.872 L 16.335 10.086 C 16.269 10.108 16.212 10.074 16.189 10.007 L 15.909 9.165 C 15.875 9.098 15.909 9.041 15.987 9.019 L 16.618 8.806 L 16.618 8.806 Z " fill="rgb(252,176,59)"/><path d=" M 27.907 14.342 C 27.907 14.421 27.862 14.466 27.784 14.466 L 27.088 14.466 L 27.088 16.353 C 27.088 16.431 27.043 16.476 26.964 16.476 L 25.954 16.476 C 25.875 16.476 25.83 16.431 25.83 16.353 L 25.83 14.466 L 22.067 14.466 C 21.989 14.466 21.944 14.421 21.944 14.342 L 21.944 13.399 C 21.944 13.332 21.956 13.287 22.001 13.242 C 22.281 12.917 22.528 12.613 22.798 12.243 L 24.876 9.57 C 25.089 9.289 25.257 9.019 25.448 8.705 C 25.493 8.649 25.538 8.627 25.605 8.627 L 26.963 8.627 C 27.042 8.627 27.087 8.672 27.087 8.75 L 27.087 13.354 L 27.783 13.354 C 27.861 13.354 27.906 13.399 27.906 13.478 L 27.906 14.342 L 27.907 14.342 Z  M 25.83 11.411 C 25.83 11.052 25.852 10.692 25.897 10.31 C 25.919 10.175 25.819 10.141 25.729 10.265 L 23.909 12.578 C 23.763 12.78 23.55 13.038 23.393 13.184 C 23.314 13.274 23.359 13.352 23.449 13.352 L 25.83 13.352 L 25.83 11.411 L 25.83 11.411 Z " fill="rgb(252,176,59)"/></g></g></g></svg>